<?xml version="1.0" encoding="UTF-8" standalone="no"?>
<!-- Created with Inkscape (http://www.inkscape.org/) -->

<svg
   width="300"
   height="266.26099"
   viewBox="0 0 79.374998 70.448221"
   version="1.1"
   id="svg23182"
   inkscape:version="1.1 (1:1.1+202105261517+ce6663b3b7)"
   sodipodi:docname="loco-draft.svg"
   xmlns:inkscape="http://www.inkscape.org/namespaces/inkscape"
   xmlns:sodipodi="http://sodipodi.sourceforge.net/DTD/sodipodi-0.dtd"
   xmlns="http://www.w3.org/2000/svg"
   xmlns:svg="http://www.w3.org/2000/svg">
  <sodipodi:namedview
     id="namedview23184"
     pagecolor="#ffffff"
     bordercolor="#666666"
     borderopacity="1.0"
     inkscape:pageshadow="2"
     inkscape:pageopacity="0.0"
     inkscape:pagecheckerboard="0"
     inkscape:document-units="mm"
     showgrid="false"
     units="px"
     inkscape:zoom="0.75187991"
     inkscape:cx="334.49491"
     inkscape:cy="216.12494"
     inkscape:window-width="1848"
     inkscape:window-height="1016"
     inkscape:window-x="72"
     inkscape:window-y="27"
     inkscape:window-maximized="1"
     inkscape:current-layer="layer1" />
  <defs
     id="defs23179" />
  <g
     inkscape:label="Layer 1"
     inkscape:groupmode="layer"
     id="layer1">
    <g
       id="g17923"
       transform="matrix(0.53478829,0,0,0.53478829,-197.80058,56.313376)"
       inkscape:export-filename="/home/marc/personal/joanne/campark/logo-draft5.png"
       inkscape:export-xdpi="96"
       inkscape:export-ydpi="96">
      <path
         style="fill:#fec458;fill-opacity:1;stroke-width:0.575751;stroke-linecap:round;stroke-linejoin:round"
         d="M 456.44754,25.88855 C 421.36355,29.956 388.6374,10.83803 375.39057,-21.46331 c -2.68344,-6.54342 -5.51281,-20.25702 -5.52338,-26.77149 -0.0282,-17.33098 4.77915,-32.51538 14.75024,-46.58983 3.11535,-4.39744 9.00598,-10.82581 9.58572,-10.4608 0.20976,0.13204 -0.0483,1.96613 -0.57343,4.07571 -1.21456,4.87904 -2.01315,12.95715 -1.9152,19.37282 0.11838,7.75304 3.58412,22.34454 7.04115,29.64469 6.81844,14.3985 15.67853,24.40716 29.01311,32.7743 8.61789,5.40751 14.97829,8.07609 24.17347,10.1422604 21.26272,4.77777 44.33943,0.0756 61.78613,-12.5898104 2.33814,-1.69734 4.36297,-3.01566 4.49974,-2.92959 0.66164,0.41658 -4.10241,10.46309 -7.43296,15.6746004 -8.24679,12.90437 -19.37029,22.5877596 -33.05043,28.7715496 -5.20455,2.35262 -16.61592,5.69472 -21.29719,6.23745 z"
         id="path17863" />
      <g
         id="g17869"
         transform="matrix(0.40659647,0,0,0.40659647,302.65094,-129.71355)">
        <path
           style="fill:#fee080;stroke-width:0.264583"
           d="m 321.53779,85.457433 c -0.94589,-0.495202 -2.06109,-0.906143 -2.47824,-0.913204 -0.68836,-0.01164 -0.74349,-0.08007 -0.59654,-0.740442 0.089,-0.400182 0.238,-1.516287 0.33101,-2.480233 l 0.1691,-1.752632 -1.60881,-1.584023 c -1.82248,-1.794404 -2.13483,-2.556431 -1.52847,-3.728982 0.54143,-1.047024 0.53315,-1.043057 3.11037,-1.490849 1.75712,-0.3053 2.32341,-0.520224 2.78941,-1.05867 0.55294,-0.638898 0.59911,-0.648694 0.84979,-0.180301 0.34164,0.638365 1.32065,1.019584 3.4603,1.34742 1.32204,0.202563 1.85747,0.421666 2.3151,0.947362 1.03543,1.189431 0.80526,2.069002 -1.04587,3.996766 -1.81617,1.89135 -1.82613,1.929794 -1.40774,5.430983 0.20046,1.677527 0.1777,1.794785 -0.47491,2.447396 -0.91357,0.913569 -1.78277,0.859734 -3.8845,-0.240591 z"
           id="path17865"
           sodipodi:nodetypes="sssscsssssssssss" />
        <path
           style="fill:#fdc256;stroke-width:0.264583"
           d="m 313.96133,86.074076 c -1.04186,-0.504486 -1.2683,-1.324951 -0.93038,-3.371114 0.16762,-1.014958 0.30476,-2.095048 0.30476,-2.400197 0,-0.318656 -0.73204,-1.334257 -1.71979,-2.385957 -1.92925,-2.054153 -2.16345,-2.90544 -1.12448,-4.087204 0.4727,-0.537665 1.04218,-0.753792 2.76497,-1.049346 1.19332,-0.204718 2.29731,-0.451104 2.45332,-0.547523 0.15601,-0.09642 0.65111,-0.910775 1.10021,-1.80968 0.44911,-0.898904 1.06251,-1.902262 1.36312,-2.229684 0.74618,-0.812737 2.27993,-0.812737 3.02308,0 0.64294,0.703149 1.39999,2.137612 1.39999,2.652719 0,0.815707 -1.18743,1.463951 -3.29556,1.799125 -2.46596,0.392066 -3.31903,1.048764 -3.31903,2.555005 0,0.7474 0.27664,1.20214 1.54582,2.54105 0.85019,0.896911 1.61763,1.831981 1.70541,2.077932 0.0878,0.245951 0.0225,1.452893 -0.14516,2.682092 l -0.30475,2.234903 -1.67025,0.82364 c -1.77242,0.874022 -2.24799,0.951627 -3.15128,0.514239 z"
           id="path17867" />
      </g>
      <path
         style="fill:#ffb640;fill-opacity:1;stroke-width:0.351896;stroke-linecap:round;stroke-linejoin:round"
         d="M 438.77658,25.54627 C 418.19549,22.95651 399.50516,12.60047 386.9161,-3.1888696 379.42215,-12.58786 373.94842,-24.51998 371.63358,-36.50309 c -1.39354,-7.21385 -1.30685,-21.39222 0.17521,-28.65561 1.3351,-6.54321 4.50756,-15.30383 7.62468,-21.05528 2.66323,-4.91397 10.07551,-15.28837 10.56994,-14.79394 0.0849,0.0849 -0.69993,1.40899 -1.74407,2.94241 -6.35373,9.33104 -11.02056,21.694 -12.23332,32.40741 -0.63874,5.64257 -0.23696,20.48073 0.66667,24.62077 1.66278,7.61815 3.72048,13.43558 7.13571,20.17379 3.79347,7.48445 8.20791,13.4328404 14.63522,19.7207004 12.63836,12.3641596 28.51804,19.8101696 46.41001,21.7617496 5.85706,0.63887 19.019,-0.36888 25.2193,-1.93092 7.73801,-1.94943 17.3112,-6.09864 23.45822,-10.1672496 1.63,-1.07888 3.02815,-1.89709 3.10698,-1.81824 0.25497,0.25496 -4.56226,4.0515996 -8.35086,6.5816196 -9.55345,6.37977 -21.70456,10.76908 -32.90933,11.88772 -5.42096,0.54123 -13.79647,0.72988 -16.62136,0.37443 z"
         id="path17871" />
      <path
         style="fill:#1a2f3d;fill-opacity:1;stroke-width:0.179206"
         d="m 400.68518,-8.3452096 c 3.75342,0.92989 8.31317,-1.54728 9.66213,-5.2491404 0.16828,-0.46322 0.36333,-1.3875 0.43243,-2.05434 0.66278,-6.39601 -5.99806,-11.13609 -11.83217,-8.42018 -3.27403,1.52414 -5.18681,4.84487 -4.78818,8.31264 0.43275,3.76466 2.83937,6.4977204 6.52579,7.4110204 z"
         id="path17873" />
      <path
         style="fill:#1a2f3d;fill-opacity:1;stroke-width:0.179206"
         d="m 454.38335,11.78125 c 3.75342,0.92989 8.31317,-1.54729 9.66213,-5.2491496 0.16828,-0.46322 0.36332,-1.3875 0.43242,-2.05433 0.66278,-6.39602 -5.99805,-11.13609 -11.83216,-8.42018 -3.27402,1.52414 -5.18681,4.84486999 -4.78819,8.31263 0.43276,3.76466 2.83938,6.4977196 6.5258,7.4110296 z"
         id="path17875" />
      <path
         style="fill:#eae9f7;stroke-width:0.179206"
         d="m 487.63442,-36.45484 c 0.0108,-0.0288 -0.14261,-0.36628 -0.34096,-0.74978 l -0.36065,-0.69727 0.28846,0.73011 c 0.26887,0.68055 0.36456,0.84659 0.41315,0.71694 z"
         id="path17877" />
      <path
         style="fill:#eae9f7;stroke-width:0.179206"
         d="m 467.62771,-26.478 0.81764,-2.18149 -10.90744,-4.08818 -10.90744,-4.08819 -0.81763,2.18149 -0.81764,2.18148 10.90744,4.08819 10.90744,4.08818 z"
         id="path17879" />
      <path
         style="fill:#eae9f7;stroke-width:0.179206"
         d="m 464.10559,-17.08083 0.81763,-2.18148 -10.90744,-4.08819 -10.90743,-4.08818 -0.81764,2.18148 -0.81764,2.18149 10.90744,4.08818 10.90744,4.08819 z"
         id="path17881" />
      <path
         style="fill:#d6d7f4;stroke-width:0.179206"
         d="m 423.4113,-39.22303 2.07554,-5.53761 -3.33324,-1.24932 c -1.83328,-0.68713 -3.76853,-1.32459 -4.30059,-1.41656 -2.46086,-0.42542 -4.99788,0.30673 -6.74737,1.94719 -1.17201,1.099 -1.82672,2.19036 -2.89086,4.81896 l -0.72329,1.78646 6.9221,2.59424 6.9221,2.59424 z"
         id="path17883" />
      <path
         id="path17885"
         style="fill:#00cdc0;fill-opacity:1;stroke-width:0.179206"
         d="m 455.59604,-39.21696 c 17.4793,6.55142 17.65644,6.62096 18.23518,7.22871 0.42439,0.44532 0.60618,0.84503 0.66283,1.45759 0.0761,0.82235 -0.015,1.09124 -3.59322,10.63817 -3.57826,9.54692 -3.68628,9.80947 -4.28424,10.3792004 -0.44531,0.4244 -0.84485,0.60568 -1.4574,0.66235 -0.82837,0.0763 -1.06631,-0.005 -13.20832,-4.5559804 l -7.40983,-2.77726 -3.01884,8.0543804 -3.01903,8.05486999 c -3.52386,-1.32076999 -2.09268,-0.78435 -5.61654,-2.10511999 l 0.94347,-2.51721 0.94347,-2.51721 11.1952,-29.8692304 0.94346,-2.51721 0.94347,-2.51721 z"
         sodipodi:nodetypes="sccsscscccccccccs" />
      <path
         style="fill:#00b3a8;fill-opacity:1;stroke-width:0.179206"
         d="m 420.72528,-12.97086 c -0.18309,-0.28513 -0.41046,-0.78526 -0.50523,-1.11142 -0.17041,-0.5864 -0.11406,-0.75002 5.06061,-14.69364 l 5.23292,-14.10066 2.77252,1.03916 2.77254,1.03916 -5.60446,14.95291 -5.60445,14.9529 -1.89579,-0.77997 c -1.59549,-0.65642 -1.94851,-0.86213 -2.2287,-1.29841 z"
         id="path17887" />
      <path
         style="fill:#557388;stroke-width:0.179206"
         d="m 487.26856,-37.01053 c -0.13029,-0.31198 -0.27464,-0.58139 -0.32078,-0.59869 -0.0462,-0.0173 0.0227,0.22382 0.15297,0.5358 0.13028,0.31197 0.27464,0.58138 0.32078,0.59868 0.0462,0.0173 -0.0227,-0.22381 -0.15297,-0.53579 z"
         id="path17889" />
      <path
         style="fill:#ececec;stroke-width:0.179206"
         d="m 447.755,2.8664204 c 0.59404,-4.12969 3.60981,-7.1573 7.51494,-7.54447 5.41789,-0.53716 9.91862,4.11866999 9.16472,9.48056 -0.10828,0.77015 -0.36875,1.73227 -0.60347,2.22911 -0.28305,0.59906 -0.34297,0.86063 -0.19051,0.83128 2.82647,-0.54429 6.94043,-1.618 7.72453,-2.01605 1.3147,-0.66742 2.60244,-1.93685 3.39007,-3.34186 0.42227,-0.75326 2.63663,-6.53228 6.89319,-17.9897604 l 6.27111,-16.88 -0.0249,-1.15763 c -0.0552,-2.56248 -1.00369,-4.64891 -2.89547,-6.36896 l -0.85643,-0.77868 -21.0839,-7.95654 -21.08389,-7.95654 -2.01472,5.37536 -2.01472,5.37535 17.82922,6.68324 c 17.49477,6.55789 17.83726,6.69301 18.25115,7.22167 0.23206,0.29614 0.47974,0.84078 0.55039,1.21033 0.12445,0.65088 0.01,0.98917 -3.67669,10.82419 -3.68623,9.83501 -3.82196,10.1655004 -4.34359,10.5742204 -0.29614,0.23206 -0.84078,0.47974 -1.21032,0.55039 -0.65458,0.12517 -0.99493,0.007 -13.21567,-4.5723104 l -7.58871,-2.84364 -3.01897,8.0547204 -3.01896,8.05471999 2.11238,0.79174 7.06745,2.64893001 z"
         id="path17891"
         sodipodi:nodetypes="sssssssscsscccccscssssccccccs" />
      <path
         style="fill:#345e7b;stroke-width:0.179206"
         d="m 456.2498,6.6870604 c 1.80347,-0.11334 3.04641,-1.55065 2.87615,-3.32592 -0.23234,-2.42255001 -3.13513,-3.56791001 -4.96694,-1.95979 -2.10746,1.85008 -0.67961,5.45984 2.09078,5.28573 z"
         id="path17893" />
      <path
         style="fill:#583443;stroke-width:0.179206"
         d="m 399.08607,-24.08284 0.93065,-0.46456 -0.96181,0.39602 c -0.89447,0.3683 -1.07628,0.46683 -0.94932,0.51441 0.0274,0.0103 0.46864,-0.19037 0.98048,-0.44587 z"
         id="path17895" />
      <path
         style="fill:#e6e6e6;stroke-width:0.179206"
         d="m 411.11126,-51.85035 c 1.56404,-0.72366 2.31585,-0.94764 3.66244,-1.09116 3.25514,-0.3469 3.33399,-0.3263 13.88538,3.62844 l 19.19654,7.195 2.01581,-5.37825 2.0158,-5.37825 -23.14539,-8.61269 -13.23527,-4.89831 -1.68526,-0.0991 c -6.22668,-0.36629 -11.86935,3.06617 -14.08195,8.56611 -0.5947,1.47811 -0.57376,1.96861 0.13057,3.06636 0.31602,0.49255 0.56537,0.60759 4.8033,2.21603 l 4.46997,1.69652 z"
         id="path17897"
         sodipodi:nodetypes="csscccccscsscc" />
      <path
         style="fill:#27465c;fill-opacity:1;stroke-width:0.179206"
         d="m 453.94689,5.7163204 c -1.16844,-1.23436 -1.07243,-3.18731 0.21213,-4.31499 1.8318,-1.60810001 4.73459,-0.46274001 4.96693,1.95979 0.27802,2.89882 -3.1771,4.47004 -5.17905,2.35518 z"
         id="path17899" />
      <path
         style="fill:#eae9f7;fill-opacity:1;stroke-width:0.273971"
         d="m 455.86737,8.2212804 c 1.27663,0.0978 3.31629,-1.03852 4.01046,-2.23432 0.81317,-1.40073 0.89723,-2.53031 0.30102,-4.04021 -0.98092,-2.48396001 -3.41326,-3.54841 -5.88124,-2.57379001 -2.44231,0.96448 -3.52735,3.45484001 -2.56597,5.88929001 0.71841,1.81914 2.09279,2.80248 4.13573,2.95903 z"
         id="path17901" />
      <path
         style="fill:#00998f;fill-opacity:1;stroke-width:0.179206"
         d="m 430.4542,-25.84534 5.60446,-14.95291 -2.77254,-1.03917 -2.77251,-1.03915 -5.23292,14.10066 c -5.17469,13.94362 -5.231,14.10725 -5.06062,14.69364 0.3763,1.29492 0.68453,1.56661 2.73393,2.40983 l 1.89579,0.77997 z"
         id="path17903" />
      <path
         style="fill:#00b3a8;fill-opacity:1;stroke-width:0.179206"
         d="m 433.8218,-4.6752896 0.95163,-2.53899 11.19533,-29.8695704 0.94343,-2.51711 0.94342,-2.51709 -18.97875,-7.11338 c -10.20366,-3.8244 -10.60794,-3.93567 -13.47699,-3.71034 -2.70926,0.2128 -4.7,0.95835 -6.84982,2.56532 -2.29301,1.71399 -3.86644,3.93131 -5.0718,7.14724 -0.90788,2.42226 -1.62306,2.91941 -4.52884,3.14811 -3.17401,0.24984 -5.58929,1.57918 -7.20398,3.96501 l -0.28411,0.41981 -2.06829,4.9662 -1.64174,4.53836 c -1.54712,4.27679 -1.63179,4.57251 -1.4693,5.13102 0.41873,1.43918 0.50972,1.50261 4.26985,2.9766 l 3.43098,1.34501 0.0318,-0.42986 c 0.0175,-0.23642 0.20027,-1.01262 0.40618,-1.72489 1.32829,-4.59465 6.46648,-7.15233 10.96367,-5.45747 3.64716,1.37445 5.91034,5.17104 5.41138,9.07765 -0.12411,0.97175 -0.98329,3.10394 -1.54512,3.83444 l -0.27516,0.35776 1.19742,0.33256 c 1.6138,0.4482 2.91291,0.5093 4.21861,0.19843 0.59836,-0.14246 1.14825,-0.23641 1.222,-0.20877 0.0737,0.0276 0.42642,0.45988 0.78373,0.9605304 0.95497,1.33806 1.84943,2.0452 4.37241,3.0264 l 12.10045,4.63604 z"
         id="path17905"
         sodipodi:nodetypes="cccccssssssccssscssssscssssscc" />
      <path
         style="fill:#eae9f7;fill-opacity:1;stroke-width:0.179206"
         d="m 408.25111,-40.83834 c 1.26717,-3.01835 1.56725,-3.53837 2.63187,-4.56103 1.33303,-1.28048 3.01698,-2.02996 4.937,-2.19733 l 1.49678,-0.13046 4.08995,1.47015 4.08996,1.47015 -2.08045,5.55072 -2.08046,5.55073 -6.95018,-2.60498 -6.95018,-2.60498 z"
         id="path17907" />
      <path
         style="fill:#eae9f7;fill-opacity:1;stroke-width:0.273971"
         d="m 402.35276,-11.83638 c 1.27663,0.0978 3.31629,-1.03852 4.01046,-2.23431 0.81317,-1.40073 0.89722,-2.53032 0.30102,-4.04022 -0.98093,-2.48396 -3.41327,-3.54841 -5.88126,-2.57379 -2.44229,0.96448 -3.52733,3.45484 -2.56595,5.88929 0.7184,1.81914 2.09279,2.80248 4.13573,2.95903 z"
         id="path17909" />
      <g
         id="g17915"
         transform="matrix(0.62202193,0,0,0.62202193,218.10957,-133.13635)">
        <path
           style="fill:#fee080;stroke-width:0.264583"
           d="m 321.53779,85.457433 c -0.94589,-0.495202 -2.06109,-0.906143 -2.47824,-0.913204 -0.68836,-0.01164 -0.74349,-0.08007 -0.59654,-0.740442 0.089,-0.400182 0.238,-1.516287 0.33101,-2.480233 l 0.1691,-1.752632 -1.60881,-1.584023 c -1.82248,-1.794404 -2.13483,-2.556431 -1.52847,-3.728982 0.54143,-1.047024 0.53315,-1.043057 3.11037,-1.490849 1.75712,-0.3053 2.32341,-0.520224 2.78941,-1.05867 0.55294,-0.638898 0.59911,-0.648694 0.84979,-0.180301 0.34164,0.638365 1.32065,1.019584 3.4603,1.34742 1.32204,0.202563 1.85747,0.421666 2.3151,0.947362 1.03543,1.189431 0.80526,2.069002 -1.04587,3.996766 -1.81617,1.89135 -1.82613,1.929794 -1.40774,5.430983 0.20046,1.677527 0.1777,1.794785 -0.47491,2.447396 -0.91357,0.913569 -1.78277,0.859734 -3.8845,-0.240591 z"
           id="path17911"
           sodipodi:nodetypes="sssscsssssssssss" />
        <path
           style="fill:#fdc256;stroke-width:0.264583"
           d="m 313.96133,86.074076 c -1.04186,-0.504486 -1.2683,-1.324951 -0.93038,-3.371114 0.16762,-1.014958 0.30476,-2.095048 0.30476,-2.400197 0,-0.318656 -0.73204,-1.334257 -1.71979,-2.385957 -1.92925,-2.054153 -2.16345,-2.90544 -1.12448,-4.087204 0.4727,-0.537665 1.04218,-0.753792 2.76497,-1.049346 1.19332,-0.204718 2.29731,-0.451104 2.45332,-0.547523 0.15601,-0.09642 0.65111,-0.910775 1.10021,-1.80968 0.44911,-0.898904 1.06251,-1.902262 1.36312,-2.229684 0.74618,-0.812737 2.27993,-0.812737 3.02308,0 0.64294,0.703149 1.39999,2.137612 1.39999,2.652719 0,0.815707 -1.18743,1.463951 -3.29556,1.799125 -2.46596,0.392066 -3.31903,1.048764 -3.31903,2.555005 0,0.7474 0.27664,1.20214 1.54582,2.54105 0.85019,0.896911 1.61763,1.831981 1.70541,2.077932 0.0878,0.245951 0.0225,1.452893 -0.14516,2.682092 l -0.30475,2.234903 -1.67025,0.82364 c -1.77242,0.874022 -2.24799,0.951627 -3.15128,0.514239 z"
           id="path17913" />
      </g>
      <g
         id="g17921"
         transform="matrix(0.77694584,0,0,0.77694584,-93.57717,-108.5782)">
        <path
           style="fill:#fdc256;fill-opacity:1;stroke-width:0.264583"
           d="m 688.58003,49.475532 c -0.94589,-0.495202 -2.06109,-0.906143 -2.47824,-0.913204 -0.68836,-0.01164 -0.74349,-0.08007 -0.59654,-0.740442 0.089,-0.400182 0.238,-1.516287 0.33101,-2.480233 l 0.1691,-1.752632 -1.60881,-1.584023 c -1.82248,-1.794404 -2.13483,-2.556431 -1.52847,-3.728982 0.54143,-1.047024 0.53315,-1.043057 3.11037,-1.490849 1.75712,-0.3053 2.32341,-0.520224 2.78941,-1.05867 0.55294,-0.638898 0.59911,-0.648694 0.84979,-0.180301 0.34164,0.638365 1.32065,1.019584 3.4603,1.34742 1.32204,0.202563 1.85747,0.421666 2.3151,0.947362 1.03543,1.189431 0.80526,2.069002 -1.04587,3.996766 -1.81617,1.89135 -1.82613,1.929794 -1.40774,5.430983 0.20046,1.677527 0.1777,1.794785 -0.47491,2.447396 -0.91357,0.913569 -1.78277,0.859734 -3.8845,-0.240591 z"
           id="path17917"
           sodipodi:nodetypes="sssscsssssssssss" />
        <path
           style="fill:#fdc256;stroke-width:0.264583"
           d="m 681.00357,50.092175 c -1.04186,-0.504486 -1.2683,-1.324951 -0.93038,-3.371114 0.16762,-1.014958 0.30476,-2.095048 0.30476,-2.400197 0,-0.318656 -0.73204,-1.334257 -1.71979,-2.385957 -1.92925,-2.054153 -2.16345,-2.90544 -1.12448,-4.087204 0.4727,-0.537665 1.04218,-0.753792 2.76497,-1.049346 1.19332,-0.204718 2.29731,-0.451104 2.45332,-0.547523 0.15601,-0.09642 0.65111,-0.910775 1.10021,-1.80968 0.44911,-0.898904 1.06251,-1.902262 1.36312,-2.229684 0.74618,-0.812737 2.27993,-0.812737 3.02308,0 0.64294,0.703149 1.39999,2.137612 1.39999,2.652719 0,0.815707 -1.18743,1.463951 -3.29556,1.799125 -2.46596,0.392066 -3.31903,1.048764 -3.31903,2.555005 0,0.7474 0.27664,1.20214 1.54582,2.54105 0.85019,0.896911 1.61763,1.831981 1.70541,2.077932 0.0878,0.245951 0.0225,1.452893 -0.14516,2.682092 l -0.30475,2.234903 -1.67025,0.82364 c -1.77242,0.874022 -2.24799,0.951627 -3.15128,0.514239 z"
           id="path17919" />
      </g>
    </g>
  </g>
</svg>
